<mxfile host="app.diagrams.net" agent="Mozilla/5.0 (Macintosh; Intel Mac OS X 10_15_7) AppleWebKit/605.1.15 (KHTML, like Gecko) Version/18.5 Safari/605.1.15" version="27.2.0">
  <diagram name="Página-1" id="H5j5eY9E6_Aa4Y5-sL2B">
    <mxGraphModel grid="1" page="1" gridSize="10" guides="1" tooltips="1" connect="1" arrows="1" fold="1" pageScale="1" pageWidth="827" pageHeight="1169" math="0" shadow="0">
      <root>
        <mxCell id="0" />
        <mxCell id="1" parent="0" />
        <mxCell id="jEqRqQ7pJ66S9zHonPoN-1" value="" style="ellipse;fillColor=strokeColor;" vertex="1" parent="1">
          <mxGeometry x="272" y="20" width="14" height="14" as="geometry" />
        </mxCell>
        <mxCell id="jEqRqQ7pJ66S9zHonPoN-2" value="Criado" style="rounded=1;arcSize=20;strokeWidth=2" vertex="1" parent="1">
          <mxGeometry x="248" y="84" width="62" height="40" as="geometry" />
        </mxCell>
        <mxCell id="jEqRqQ7pJ66S9zHonPoN-3" value="EmPreparo" style="rounded=1;arcSize=20;strokeWidth=2" vertex="1" parent="1">
          <mxGeometry x="181" y="197" width="93" height="40" as="geometry" />
        </mxCell>
        <mxCell id="jEqRqQ7pJ66S9zHonPoN-4" value="Pronto" style="rounded=1;arcSize=20;strokeWidth=2" vertex="1" parent="1">
          <mxGeometry x="122" y="327" width="63" height="40" as="geometry" />
        </mxCell>
        <mxCell id="jEqRqQ7pJ66S9zHonPoN-5" value="Entregue" style="rounded=1;arcSize=20;strokeWidth=2" vertex="1" parent="1">
          <mxGeometry x="20" y="439" width="80" height="40" as="geometry" />
        </mxCell>
        <mxCell id="jEqRqQ7pJ66S9zHonPoN-6" value="Cancelado" style="rounded=1;arcSize=20;strokeWidth=2" vertex="1" parent="1">
          <mxGeometry x="337" y="439" width="90" height="40" as="geometry" />
        </mxCell>
        <mxCell id="jEqRqQ7pJ66S9zHonPoN-7" value="" style="ellipse;shape=endState;fillColor=strokeColor;" vertex="1" parent="1">
          <mxGeometry x="221" y="529" width="14" height="14" as="geometry" />
        </mxCell>
        <mxCell id="jEqRqQ7pJ66S9zHonPoN-8" value="" style="curved=1;startArrow=none;;exitX=0.52;exitY=1;entryX=0.5;entryY=0;rounded=0;" edge="1" parent="1" source="jEqRqQ7pJ66S9zHonPoN-1" target="jEqRqQ7pJ66S9zHonPoN-2">
          <mxGeometry relative="1" as="geometry">
            <Array as="points" />
          </mxGeometry>
        </mxCell>
        <mxCell id="jEqRqQ7pJ66S9zHonPoN-9" value="Pedido aceito" style="curved=1;startArrow=none;;exitX=0.21;exitY=1;entryX=0.5;entryY=-0.01;rounded=0;" edge="1" parent="1" source="jEqRqQ7pJ66S9zHonPoN-2" target="jEqRqQ7pJ66S9zHonPoN-3">
          <mxGeometry relative="1" as="geometry">
            <Array as="points">
              <mxPoint x="228" y="160" />
            </Array>
          </mxGeometry>
        </mxCell>
        <mxCell id="jEqRqQ7pJ66S9zHonPoN-10" value="Preparação finalizada" style="curved=1;startArrow=none;;exitX=0.26;exitY=0.99;entryX=0.5;entryY=-0.01;rounded=0;" edge="1" parent="1" source="jEqRqQ7pJ66S9zHonPoN-3" target="jEqRqQ7pJ66S9zHonPoN-4">
          <mxGeometry relative="1" as="geometry">
            <Array as="points">
              <mxPoint x="153" y="282" />
            </Array>
          </mxGeometry>
        </mxCell>
        <mxCell id="jEqRqQ7pJ66S9zHonPoN-11" value="Entrega realizada" style="curved=1;startArrow=none;;exitX=0;exitY=0.97;entryX=0.5;entryY=0.01;rounded=0;" edge="1" parent="1" source="jEqRqQ7pJ66S9zHonPoN-4" target="jEqRqQ7pJ66S9zHonPoN-5">
          <mxGeometry relative="1" as="geometry">
            <Array as="points">
              <mxPoint x="60" y="403" />
            </Array>
          </mxGeometry>
        </mxCell>
        <mxCell id="jEqRqQ7pJ66S9zHonPoN-12" value="Cancelado antes da entrega" style="curved=1;startArrow=none;;exitX=0.99;exitY=0.97;entryX=0;entryY=0.04;rounded=0;" edge="1" parent="1" source="jEqRqQ7pJ66S9zHonPoN-4" target="jEqRqQ7pJ66S9zHonPoN-6">
          <mxGeometry relative="1" as="geometry">
            <Array as="points">
              <mxPoint x="247" y="403" />
            </Array>
          </mxGeometry>
        </mxCell>
        <mxCell id="jEqRqQ7pJ66S9zHonPoN-13" value="Cancelado em preparo" style="curved=1;startArrow=none;;exitX=1;exitY=0.98;entryX=0.5;entryY=0.01;rounded=0;" edge="1" parent="1" source="jEqRqQ7pJ66S9zHonPoN-3" target="jEqRqQ7pJ66S9zHonPoN-6">
          <mxGeometry relative="1" as="geometry">
            <Array as="points">
              <mxPoint x="382" y="282" />
            </Array>
          </mxGeometry>
        </mxCell>
        <mxCell id="jEqRqQ7pJ66S9zHonPoN-14" value="Cancelado antes de preparo" style="curved=1;startArrow=none;;exitX=1.01;exitY=0.71;entryX=0.91;entryY=0.01;rounded=0;" edge="1" parent="1" source="jEqRqQ7pJ66S9zHonPoN-2" target="jEqRqQ7pJ66S9zHonPoN-6">
          <mxGeometry relative="1" as="geometry">
            <Array as="points">
              <mxPoint x="485" y="160" />
              <mxPoint x="485" y="403" />
            </Array>
          </mxGeometry>
        </mxCell>
        <mxCell id="jEqRqQ7pJ66S9zHonPoN-15" value="" style="curved=1;startArrow=none;;exitX=0.5;exitY=1.01;entryX=0.99;entryY=0.42;rounded=0;" edge="1" parent="1" source="jEqRqQ7pJ66S9zHonPoN-6" target="jEqRqQ7pJ66S9zHonPoN-7">
          <mxGeometry relative="1" as="geometry">
            <Array as="points">
              <mxPoint x="382" y="504" />
            </Array>
          </mxGeometry>
        </mxCell>
        <mxCell id="jEqRqQ7pJ66S9zHonPoN-16" value="" style="curved=1;startArrow=none;;exitX=0.5;exitY=1.01;entryX=-0.01;entryY=0.43;rounded=0;" edge="1" parent="1" source="jEqRqQ7pJ66S9zHonPoN-5" target="jEqRqQ7pJ66S9zHonPoN-7">
          <mxGeometry relative="1" as="geometry">
            <Array as="points">
              <mxPoint x="60" y="504" />
            </Array>
          </mxGeometry>
        </mxCell>
      </root>
    </mxGraphModel>
  </diagram>
</mxfile>
